# xmcd
#
# Track frame offsets: 
#        182
#        17737
#        36932
#        48320
#        75410
#        91375
#        108115
#        131707
#        149315
#        166367
#
# Disc length: 2504 seconds
#
# Revision: 4
# Processed by: cddbd v1.5.2PL0 Copyright (c) Steve Scherf et al.
# Submitted via: ExactAudioCopyFreeDBPlugin 1.0
#
DISCID=7909c60a
DTITLE=Johnny Littlejohn - When Your Best Friend Turns Their Back On Y
DTITLE=ou
DYEAR=1992
DGENRE=Blues
TTITLE0=The Sun Is Shining
TTITLE1=If You Don't Want Me
TTITLE2=29 Ways
TTITLE3=Drifting
TTITLE4=Slidin' Home
TTITLE5=Feel Like Choppin'
TTITLE6=What In The World
TTITLE7=I Didn't Know Baby
TTITLE8=Johnny's Jive
TTITLE9=Keep On Running
EXTD=
EXTT0=
EXTT1=
EXTT2=
EXTT3=
EXTT4=
EXTT5=
EXTT6=
EXTT7=
EXTT8=
EXTT9=
PLAYORDER=
